# Blender v2.79 (sub 0) OBJ File: ''
# www.blender.org
mtllib colored_cube.mtl
o cube_centered
v 2.000000 -2.000000 -2.000000
v -2.000000 2.000000 -2.000000
v -2.000000 -2.000000 -2.000000
v -2.000000 -2.000000 2.000000
v 2.000000 2.000000 2.000000
v 2.000000 -2.000000 2.000000
v 2.000000 2.000000 -2.000000
v -2.000000 2.000000 2.000000
vn 0.0000 -1.0000 -0.0000
vn 0.0000 1.0000 0.0000
vn 0.0000 -0.0000 1.0000
vn 0.0000 0.0000 -1.0000
vn -1.0000 0.0000 0.0000
vn 1.0000 -0.0000 0.0000
usemtl Material.001
s 1
f 2//1 5//1 8//1
f 4//2 1//2 3//2
f 2//1 7//1 5//1
f 4//2 6//2 1//2
usemtl Material.002
f 1//3 2//3 3//3
f 4//4 5//4 6//4
f 1//3 7//3 2//3
f 4//4 8//4 5//4
usemtl Material.003
f 7//5 6//5 5//5
f 3//6 8//6 4//6
f 7//5 1//5 6//5
f 3//6 2//6 8//6
